# xmcd
#
# Track frame offsets: 
#        150
#        21960
#        34267
#        54445
#        75295
#        98904
#        121635
#        133235
#        148612
#        167375
#        184565
#        210465
#
# Disc length: 3141 seconds
#
# Revision: 0
# Processed by: cddbd v1.5.1PL2 Copyright (c) Steve Scherf et al.
# Submitted via: ExactAudioCopy v0.95b3
#
DISCID=930c430c
DTITLE=Michael Pickett - Blues Money
DYEAR=1998
DGENRE=Blues
TTITLE0=World Gone Crazy
TTITLE1=Blues Money
TTITLE2=Shake
TTITLE3=The Sweetest Sound
TTITLE4=1988
TTITLE5=All of These Blues
TTITLE6=Call Your Name
TTITLE7=Work So Hard
TTITLE8=Walkin'
TTITLE9=Trouble
TTITLE10=I Won't Be Your Fool
TTITLE11=My Mind's Made Up
EXTD=
EXTT0=
EXTT1=
EXTT2=
EXTT3=
EXTT4=
EXTT5=
EXTT6=
EXTT7=
EXTT8=
EXTT9=
EXTT10=
EXTT11=
PLAYORDER=
